HIERARCHY
ROOT Hips
{
	OFFSET 0.00000 0.00000 0.00000
	CHANNELS 6 Xposition Yposition Zposition Zrotation Yrotation Xrotation 
	JOINT LHipJoint
	{
		OFFSET 0 0 0
		CHANNELS 3 Zrotation Yrotation Xrotation
		JOINT LeftUpLeg
		{
			OFFSET 1.56857 -1.73443 1.15205
			CHANNELS 3 Zrotation Yrotation Xrotation
			JOINT LeftLeg
			{
				OFFSET 2.39362 -6.57643 0.00000
				CHANNELS 3 Zrotation Yrotation Xrotation
				JOINT LeftFoot
				{
					OFFSET 2.50952 -6.89485 0.00000
					CHANNELS 3 Zrotation Yrotation Xrotation
					JOINT LeftToeBase
					{
						OFFSET 0.17171 -0.47178 1.88682
						CHANNELS 3 Zrotation Yrotation Xrotation
						End Site
						{
							OFFSET 0.00000 -0.00000 0.98146
						}
					}
				}
			}
		}
	}
	JOINT RHipJoint
	{
		OFFSET 0 0 0
		CHANNELS 3 Zrotation Yrotation Xrotation
		JOINT RightUpLeg
		{
			OFFSET -1.28153 -1.73443 1.15205
			CHANNELS 3 Zrotation Yrotation Xrotation
			JOINT RightLeg
			{
				OFFSET -2.26861 -6.23296 0.00000
				CHANNELS 3 Zrotation Yrotation Xrotation
				JOINT RightFoot
				{
					OFFSET -2.54143 -6.98254 0.00000
					CHANNELS 3 Zrotation Yrotation Xrotation
					JOINT RightToeBase
					{
						OFFSET -0.23309 -0.64041 1.93119
						CHANNELS 3 Zrotation Yrotation Xrotation
						End Site
						{
							OFFSET -0.00000 -0.00000 1.02013
						}
					}
				}
			}
		}
	}
	JOINT LowerBack
	{
		OFFSET 0 0 0
		CHANNELS 3 Zrotation Yrotation Xrotation
		JOINT Spine
		{
			OFFSET -0.07096 2.10460 -0.27878
			CHANNELS 3 Zrotation Yrotation Xrotation
			JOINT Spine1
			{
				OFFSET -0.00826 2.13662 -0.08279
				CHANNELS 3 Zrotation Yrotation Xrotation
				JOINT Neck
				{
					OFFSET 0 0 0
					CHANNELS 3 Zrotation Yrotation Xrotation
					JOINT Neck1
					{
						OFFSET 0.03239 1.77799 0.24435
						CHANNELS 3 Zrotation Yrotation Xrotation
						JOINT Head
						{
							OFFSET 0.01026 1.74194 -0.49664
							CHANNELS 3 Zrotation Yrotation Xrotation
							End Site
							{
								OFFSET 0.00170 1.83057 -0.19653
							}
						}
					}
				}
				JOINT LeftShoulder
				{
					OFFSET 0 0 0
					CHANNELS 3 Zrotation Yrotation Xrotation
					JOINT LeftArm
					{
						OFFSET 3.19178 1.35907 -0.31412
						CHANNELS 3 Zrotation Yrotation Xrotation
						JOINT LeftForeArm
						{
							OFFSET 4.85247 -0.00000 -0.00000
							CHANNELS 3 Zrotation Yrotation Xrotation
							JOINT LeftHand
							{
								OFFSET 3.55584 -0.00000 0.00000
								CHANNELS 3 Zrotation Yrotation Xrotation
								JOINT LeftFingerBase
								{
									OFFSET 0 0 0
									CHANNELS 3 Zrotation Yrotation Xrotation
									JOINT LeftHandIndex1
									{
										OFFSET 0.69320 -0.00000 0.00000
										CHANNELS 3 Zrotation Yrotation Xrotation
										End Site
										{
											OFFSET 0.55888 -0.00000 0.00000
										}
									}
								}
								JOINT LThumb
								{
									OFFSET 0 0 0
									CHANNELS 3 Zrotation Yrotation Xrotation
									End Site
									{
										OFFSET 0.56741 -0.00000 0.56741
									}
								}
							}
						}
					}
				}
				JOINT RightShoulder
				{
					OFFSET 0 0 0
					CHANNELS 3 Zrotation Yrotation Xrotation
					JOINT RightArm
					{
						OFFSET -3.28999 1.24191 -0.26899
						CHANNELS 3 Zrotation Yrotation Xrotation
						JOINT RightForeArm
						{
							OFFSET -4.64462 -0.00000 0.00000
							CHANNELS 3 Zrotation Yrotation Xrotation
							JOINT RightHand
							{
								OFFSET -3.40703 -0.00000 0.00000
								CHANNELS 3 Zrotation Yrotation Xrotation
								JOINT RightFingerBase
								{
									OFFSET 0 0 0
									CHANNELS 3 Zrotation Yrotation Xrotation
									JOINT RightHandIndex1
									{
										OFFSET -0.61958 -0.00000 0.00000
										CHANNELS 3 Zrotation Yrotation Xrotation
										End Site
										{
											OFFSET -0.49952 -0.00000 0.00000
										}
									}
								}
								JOINT RThumb
								{
									OFFSET 0 0 0
									CHANNELS 3 Zrotation Yrotation Xrotation
									End Site
									{
										OFFSET -0.50715 -0.00000 0.50715
									}
								}
							}
						}
					}
				}
			}
		}
	}
}
MOTION
Frames: 10
Frame Time: .0083333
38.0962 16.0922 13.7603 567.5210 53.3338 562.9930 0.0000 0.0000 0.0000 -5.1410 3.5587 -34.2492 0.8835 5.9919 16.7610 0.2255 11.1609 -18.7968 0.5015 4.5401 12.6012 0.0000 0.0000 0.0000 28.1808 -13.5670 19.0365 -0.1232 -2.2632 6.2335 -1.8220 4.9819 -24.4201 -0.6503 5.1582 -14.3603 11.4755 4.8933 8.3918 1.4178 7.6887 2.2123 -5.5091 3.9333 -1.0652 12.7034 8.5541 -20.1202 -9.5653 12.2151 28.3129 -3.6036 5.7077 14.5483 0.0000 0.0000 0.0000 -74.7154 18.6111 13.9187 15.1424 -24.3441 -3.2844 -0.0000 -0.0000 3.8416 21.6689 -22.7565 -8.7374 -7.1250 0.0000 -0.0000 -4.5645 5.7523 4.0973 0.0000 0.0000 0.0000 57.6995 16.1787 14.1780 -26.1069 37.3141 -8.9524 0.0000 -0.0000 -6.6419 -18.9577 -32.4882 10.4537 7.1250 -0.0000 -0.0000 16.2807 -63.2134 -7.2954
38.2451 16.0653 13.6474 567.3540 53.6262 562.8270 0.0000 0.0000 0.0000 -5.5437 4.3564 -34.6852 1.0749 6.5904 18.5073 0.0974 12.2591 -18.6597 0.2159 2.9916 8.2553 0.0000 0.0000 0.0000 27.8610 -13.3110 19.7020 -0.1387 -2.4001 6.6128 -1.8246 4.6371 -24.4855 -0.7296 5.4573 -15.2177 10.9960 5.0587 8.2442 1.2512 7.8327 2.2401 -5.4110 4.0078 -0.9690 12.5045 8.6086 -20.3318 -9.1846 12.1894 28.3260 -3.4136 5.7099 14.5471 -0.0000 0.0000 0.0000 -74.9465 18.5417 12.0057 14.6526 -23.6600 -3.0852 -0.0000 -0.0000 4.6593 22.2977 -23.6740 -9.3505 -7.1250 0.0000 -0.0000 -4.2654 4.6854 3.9138 -0.0000 0.0000 0.0000 58.2498 15.9768 14.5742 -26.7512 37.9409 -9.3457 0.0000 -0.0000 -6.8673 -18.8488 -32.7447 10.4619 7.1250 -0.0000 -0.0000 16.6212 -63.4299 -7.5365
38.3953 16.0418 13.5367 566.8210 54.0384 562.3940 0.0000 0.0000 0.0000 -6.3015 5.4129 -35.1600 1.2646 7.1282 20.0959 -0.0706 13.6007 -18.4751 0.0899 1.9343 5.3242 0.0000 0.0000 0.0000 27.3642 -12.8987 20.3121 -0.1696 -2.6531 7.3143 -1.8501 3.7810 -24.8011 -1.5511 7.8608 -22.2922 10.2090 5.2328 8.1019 1.0219 7.9621 2.2502 -5.2137 4.0686 -0.9317 13.0241 8.7417 -19.8682 -9.5601 12.2979 27.7550 -3.6353 5.7708 14.2871 0.0000 -0.0000 0.0000 -75.1679 18.4940 10.9425 14.2743 -23.1255 -2.9350 -0.0000 -0.0000 4.8738 23.1543 -22.8969 -9.4469 -7.1250 0.0000 -0.0000 -3.6519 5.3505 3.3023 0.0000 -0.0000 0.0000 58.8762 15.7225 15.1505 -27.4185 38.5754 -9.7590 0.0000 -0.0000 -7.3653 -19.0837 -32.6221 10.5647 7.1250 -0.0000 -0.0000 16.2501 -63.3749 -7.3427
38.5465 16.0175 13.4207 565.1950 54.5878 561.1030 0.0000 0.0000 0.0000 -7.8920 6.4062 -35.3955 1.3974 7.4782 21.1401 -0.1952 14.7392 -18.6646 0.1917 2.8196 7.7770 0.0000 0.0000 0.0000 26.2419 -12.2636 21.0724 -0.1947 -2.8418 7.8387 -1.8700 2.9398 -25.1028 -2.0342 8.9370 -25.5986 8.8077 5.4046 7.8916 0.6408 8.0259 2.2922 -4.8293 4.0942 -0.8990 13.0957 8.7969 -19.8385 -9.5937 12.3267 27.5480 -3.6526 5.7813 14.2039 0.0000 -0.0000 0.0000 -75.7627 18.5253 8.7670 14.1532 -22.9533 -2.8876 -0.0000 -0.0000 6.1824 23.4583 -22.3920 -9.3866 -7.1250 0.0000 -0.0000 -3.4087 5.8297 3.0504 0.0000 -0.0000 0.0000 59.6150 15.4588 15.7104 -28.0386 39.1518 -10.1481 0.0000 -0.0000 -7.6084 -19.0390 -32.3455 10.4607 7.1250 -0.0000 -0.0000 16.0702 -63.0980 -7.1550
38.7000 15.9982 13.2934 563.2010 54.8505 559.4770 0.0000 0.0000 0.0000 -9.7238 7.3562 -35.5910 1.5017 7.7402 21.9276 -0.2959 15.3703 -18.4154 0.2042 2.9098 8.0278 0.0000 0.0000 0.0000 24.9841 -11.8621 21.8457 -0.2128 -2.9696 8.1941 -1.8441 2.3028 -25.0636 -2.2054 9.2815 -26.6799 7.4475 5.4802 7.5777 0.1892 7.9665 2.3472 -4.5177 4.0625 -0.7982 13.1855 8.8658 -19.9210 -9.5966 12.3768 27.5084 -3.6547 5.8057 14.2192 0.0000 -0.0000 0.0000 -75.7933 18.0575 7.4029 13.3994 -21.8697 -2.6002 -0.0000 -0.0000 6.8583 23.6994 -22.5520 -9.5561 -7.1250 0.0000 -0.0000 -3.2750 5.6182 2.9436 0.0000 -0.0000 0.0000 60.5872 15.0594 16.1935 -28.7377 39.7866 -10.5925 0.0000 -0.0000 -7.6075 -18.9940 -32.3858 10.4460 7.1250 -0.0000 -0.0000 16.1545 -63.1248 -7.2037
38.8499 15.9890 13.1601 561.5750 54.9253 558.1020 0.0000 0.0000 0.0000 -11.0517 7.9954 -35.6065 1.5875 7.9481 22.5567 -0.3461 15.5540 -18.0686 0.1449 2.4530 6.7593 0.0000 0.0000 0.0000 23.9140 -11.6603 22.4003 -0.2456 -3.1890 8.8054 -1.7741 1.7172 -24.7119 -2.4856 9.8117 -28.3692 6.4059 5.4830 7.3448 -0.2198 7.8588 2.3601 -4.3421 4.0052 -0.7534 13.3326 8.9465 -19.8370 -9.5476 12.4285 27.4288 -3.6487 5.8499 14.1821 0.0000 0.0000 0.0000 -75.8348 18.1971 6.7364 13.2313 -21.6252 -2.5379 -0.0000 -0.0000 6.9943 23.5818 -22.1508 -9.3462 -7.1250 0.0000 -0.0000 -3.3060 6.0633 2.9433 0.0000 0.0000 0.0000 61.6434 14.5491 16.8986 -29.4695 40.4343 -11.0639 0.0000 -0.0000 -7.7527 -19.3832 -32.4184 10.6813 7.1250 -0.0000 -0.0000 15.7389 -63.2584 -7.0629
38.9933 15.9855 13.0251 559.6660 55.1453 556.4350 0.0000 0.0000 0.0000 -12.3355 8.2501 -35.2248 1.6438 8.0810 22.9602 -0.2832 14.9993 -17.9475 0.1924 2.8250 7.7919 0.0000 0.0000 0.0000 22.5896 -11.3083 22.8921 -0.2954 -3.4951 9.6603 -1.7062 1.2311 -24.3519 -2.7177 10.2234 -29.7032 5.2297 5.5072 7.2882 -0.6929 7.7911 2.3859 -4.1791 3.9667 -0.7950 13.2662 9.0225 -19.9235 -9.2072 12.4380 27.4822 -3.4951 5.8838 14.1902 0.0000 0.0000 0.0000 -76.1314 17.4445 3.7789 12.4611 -20.4925 -2.2611 -0.0000 -0.0000 9.6453 23.5014 -21.8398 -9.1889 -7.1250 0.0000 -0.0000 -3.3242 6.4065 2.9376 0.0000 0.0000 0.0000 62.6836 14.0122 17.7063 -30.1830 41.0498 -11.5296 0.0000 -0.0000 -7.9987 -19.8237 -32.2621 10.8921 7.1250 -0.0000 -0.0000 15.1083 -63.2237 -6.7608
39.1332 15.9884 12.8888 557.4790 55.2672 554.6300 0.0000 0.0000 0.0000 -13.7855 8.3992 -34.9396 1.7036 8.2192 23.3819 -0.1257 13.4784 -17.5780 0.3768 3.9424 10.9146 0.0000 0.0000 0.0000 21.2966 -10.7607 23.2197 -0.3608 -3.8586 10.6792 -1.6448 0.7119 -24.0505 -2.8715 10.4841 -30.5591 3.9788 5.5244 7.1522 -1.2067 7.7125 2.4066 -4.0057 3.9254 -0.8019 13.3455 9.1702 -19.9418 -9.0895 12.5888 27.4784 -3.4267 5.9687 14.2103 0.0000 0.0000 0.0000 -76.0972 17.0417 3.0703 11.8985 -19.6522 -2.0680 -0.0000 -0.0000 10.3790 23.3546 -21.2160 -8.8813 -7.1250 0.0000 -0.0000 -3.3543 7.0920 2.9197 0.0000 0.0000 0.0000 63.6908 13.3740 18.5059 -30.8936 41.6471 -11.9990 0.0000 -0.0000 -8.2087 -20.0660 -31.9146 10.9296 7.1250 -0.0000 -0.0000 14.5545 -62.9506 -6.4142
39.2734 16.0003 12.7518 555.8270 55.1678 553.3310 0.0000 0.0000 0.0000 -15.1892 8.9260 -35.1088 1.8106 8.4598 24.1197 -0.1436 12.6266 -15.9805 0.2327 3.1049 8.5710 0.0000 0.0000 0.0000 20.6830 -9.9933 23.4381 -0.4392 -4.2525 11.7880 -1.5517 -0.0019 -23.5757 -2.7739 10.3197 -30.0184 2.9672 5.4843 6.9060 -1.5555 7.5793 2.3900 -3.7794 3.8568 -0.7803 13.3645 9.2393 -19.8906 -9.1001 12.7077 27.4827 -3.4098 6.0238 14.2207 0.0000 0.0000 0.0000 -76.3484 16.3359 0.7510 11.1156 -18.4652 -1.8124 -0.0000 -0.0000 12.7181 22.9268 -21.2573 -8.7184 -7.1250 0.0000 -0.0000 -3.6295 7.1192 3.1582 0.0000 0.0000 0.0000 64.6074 12.5893 19.4696 -31.6045 42.2296 -12.4742 0.0000 -0.0000 -8.2796 -19.9777 -31.5309 10.7641 7.1250 -0.0000 -0.0000 14.3587 -62.5545 -6.1922
39.4158 16.0198 12.6105 554.7120 54.9053 552.3840 0.0000 0.0000 0.0000 -16.0555 9.0918 -34.8979 1.9091 8.6742 24.7813 -0.1209 12.0176 -15.3521 0.3679 3.8962 10.7848 0.0000 0.0000 0.0000 20.4014 -9.3719 23.4871 -0.5507 -4.7538 13.2078 -1.4420 -0.5635 -22.9189 -2.4017 9.6569 -27.8728 2.3347 5.4227 6.7847 -1.8394 7.4512 2.3314 -3.7092 3.7903 -0.8276 13.5383 9.3824 -19.9861 -9.0759 12.8818 27.6669 -3.3883 6.1192 14.3586 0.0000 -0.0000 0.0000 -77.3036 13.0039 -15.1988 8.5757 -14.4817 -1.0916 -0.0000 -0.0000 28.4558 22.9845 -23.9513 -9.7700 -7.1250 0.0000 -0.0000 -3.8713 4.2722 3.5805 0.0000 -0.0000 0.0000 65.5956 11.6392 20.4288 -32.2847 42.7730 -12.9338 0.0000 -0.0000 -8.3013 -19.7589 -31.3749 10.5930 7.1250 -0.0000 -0.0000 14.4884 -62.3465 -6.1784
